# xmcd CD database file
#
# Track frame offsets:
#	150
#	3096
#	21001
#	41495
#	61077
#	79189
#	95777
#	99026
#	118278
#	139470
#
# Disc length: 2094 seconds
#
# Revision: 0
# Processed by: cddbd v1.5.1PL0 Copyright (c) Steve Scherf et al.
# Submitted via: CDex 1.51
#
DISCID=78082c0a
DTITLE=Danny - Yakumbuyo
DYEAR=2003
DGENRE=Rhythmic Soul
TTITLE0=Nalelo
TTITLE1=Yakumbuyo
TTITLE2=Njelela feat. Kmillion
TTITLE3=Pantu Mukoncluda
TTITLE4=Uzani Kumbuklia
TTITLE5=Tau Fipaga, feat. Pettie
TTITLE6=interlude Joni
TTITLE7=Joni (Eve Sayonda)
TTITLE8=I cant believe, feat. Mainza
TTITLE9=Yakumbuyo (instrumental)
EXTD=YEAR: 2003
EXTT0=
EXTT1=
EXTT2=
EXTT3=
EXTT4=
EXTT5=
EXTT6=
EXTT7=
EXTT8=
EXTT9=
PLAYORDER=
